<?xml version="1.0" encoding="UTF-8"?>
<svg id="Layer_2" data-name="Layer 2" xmlns="http://www.w3.org/2000/svg" viewBox="0 0 424.69 402.27">
  <defs>
    <style>
      .cls-1 {
        fill: #2c786d;
      }

      .cls-2 {
        fill: #b3dfd6;
      }
    </style>
  </defs>
  <g id="Layer_1-2" data-name="Layer 1">
    <g>
      <path class="cls-1" d="M227.65,21.45c2.21,3.21,7.89,7.65,11.03,10.48,23.39,21.08,52.25,41.42,74.03,63.39,4.36,4.4,6.74,11,3.01,16.63-3.34,5.04-12.54,4.16-14.19,5.82-.27.27-1.59,5.36-1.68,6.25-.07,60.66.46,120.63,1.71,181.02l22.3,85.7c.85,5.4-2.93,10.93-8.5,11.53l-206.74-.19c-5.68-1.76-7.45-5.76-7.27-11.39l22.5-88.55c-.37-60.46,1.41-120.59.74-181.05.07-5.39-5.22-4.04-8.97-5.36-6.8-2.4-7.82-9.33-5.66-15.47,1.4-3.95,6.36-6.66,9.44-9.44,5.13-4.63,10.01-9.38,15.86-13.59,17.77-18.52,42.04-34.3,59.38-52.74,7-7.44,3.73-10.4,6.5-17.24,4.06-9.99,18.27-9.49,22.47.49,2.05,4.87.06,7.95,4.04,13.72ZM271.91,289.75c-.09-16.99.11-34,.03-51-.05-9.85-.14-19.6,0-29.38.36-24.94-3.03-48.1-23.83-64.56-42.88-33.94-93.84-.52-94.88,50.19-.4,19.39-.86,38.83-1.4,58.1-.34,12.17-.19,24.58.79,36.65h119.3Z"/>
      <path class="cls-2" d="M389.2,111.31c33.61,29.87,43.19,87.29,29.39,129.94-5.69,17.6-15.81,33.45-28.11,46.65-10.45,11.22-25.34-2.62-16.66-12.88,1.58-1.87,5.02-4.73,6.56-6.65,31.7-39.83,31.57-94.41,1.49-135.38-2.15-2.93-6.26-6.05-8.36-9.38-6.97-11.01,5.51-20.87,13.92-14.66.92.68,1.13,1.81,1.77,2.37Z"/>
      <path class="cls-2" d="M47.22,127.77c-34.87,44.97-36.43,100.06,0,144.34,3.64,4.42,6.82,3.8,5.68,11.94-.85,6.1-8.96,10.2-14.55,7.07-.87-.49-1.02-1.5-1.51-1.85-4.35-3.05-6.52-6.06-9.86-10.19-37.84-46.67-35.62-120.53,5.2-165.25,1.4-1.53,4.66-5.08,6.4-5.68,12.43-4.3,18.65,7.89,10.94,17.75-.68.86-1.78,1.23-2.28,1.88Z"/>
      <path class="cls-2" d="M364.75,247.74c-1.12,1.64-1.76,3.57-3.31,5.38-3.81,4.45-7.5,8.14-13.9,7.15-3.43-.53-7.54-4.53-7.92-7.97-.8-7.18,4.74-10.65,8.11-15.91,16.15-25.19,15.96-48.46,0-73.71-2.58-4.07-7.51-8.11-8.1-13.05-.99-8.16,4.69-11.86,12.33-10.8,4.32.6,3.42,2.06,5.7,4.11,5.78,5.2,8.46,8.85,12,15.93,15.25,30.43,14.3,60.91-4.91,88.86Z"/>
      <path class="cls-2" d="M64.04,252.98c-26.7-29-26.21-82.6,1.78-110.02,8.18-8.01,20.9-4.7,18.79,8.22-.53,3.27-7.48,10.96-9.63,14.53-13.02,21.61-13.81,45.7-.47,67.37,3.95,6.41,11.42,11.82,10.06,20-.8,4.87-4.7,7.28-9.37,7.3-5.03.03-4.38-1.01-7.25-3.38-2.61-2.16-2.05-1.99-3.92-4.01Z"/>
      <path class="cls-1" d="M177.89,256.48c-4.8.11-12.84,3.52-15.13-3.68-1.35-4.24.16-4.85,1.33-7.85,1.58-4.02,4.27-8.35,5.69-13.19,5.66-19.37,1.8-42.4,20.17-55.22,1.98-1.38,8.7-5.14,9.51-6.4,1.76-2.71-.76-6.78,1.64-11.21,4.84-8.92,18.5-7.19,22.11,2.46.69,1.85.96,7.9,1.25,8.21.33.35,6.78,3.54,8.43,4.77,18.82,14.03,16.37,36.38,22.02,57.26,1.62,6,7.66,14.87,7.21,20-.8,9.12-11.35,4.91-16.27,4.91-4.55,0-16.35-.23-16.35-.23,0,0,.1,3.5-1.99,7.55-1.52,2.94-5.22,5.08-8.29,6.06-11.58,3.68-22.97.14-23.63-13.34"/>
    </g>
  </g>
</svg>